<mxfile host="Electron" agent="Mozilla/5.0 (Windows NT 10.0; Win64; x64) AppleWebKit/537.36 (KHTML, like Gecko) draw.io/24.7.8 Chrome/128.0.6613.36 Electron/32.0.1 Safari/537.36" version="24.7.8">
  <diagram name="Page-1" id="pCsZuaA5z1JTF7aSOXdf">
    <mxGraphModel dx="2314" dy="1196" grid="1" gridSize="10" guides="1" tooltips="1" connect="1" arrows="1" fold="1" page="1" pageScale="1" pageWidth="850" pageHeight="1100" math="0" shadow="0">
      <root>
        <mxCell id="0" />
        <mxCell id="1" parent="0" />
        <mxCell id="Pm5u3H1z8by2jEkY2p9G-5" value="" style="group" parent="1" vertex="1" connectable="0">
          <mxGeometry x="275" width="405" height="1100" as="geometry" />
        </mxCell>
        <mxCell id="Pm5u3H1z8by2jEkY2p9G-2" value="" style="rounded=0;whiteSpace=wrap;html=1;" parent="Pm5u3H1z8by2jEkY2p9G-5" vertex="1">
          <mxGeometry width="405" height="940" as="geometry" />
        </mxCell>
        <mxCell id="Pm5u3H1z8by2jEkY2p9G-4" value="Research Management System" style="rounded=0;whiteSpace=wrap;html=1;" parent="Pm5u3H1z8by2jEkY2p9G-5" vertex="1">
          <mxGeometry width="229.5" height="50" as="geometry" />
        </mxCell>
        <mxCell id="2xes0_FK-Emr16ivV42R-11" style="edgeStyle=orthogonalEdgeStyle;rounded=0;orthogonalLoop=1;jettySize=auto;html=1;exitX=0.5;exitY=1;exitDx=0;exitDy=0;" parent="Pm5u3H1z8by2jEkY2p9G-5" edge="1">
          <mxGeometry relative="1" as="geometry">
            <mxPoint x="201.25" y="738.6990476190475" as="sourcePoint" />
            <mxPoint x="201.25" y="738.6990476190475" as="targetPoint" />
          </mxGeometry>
        </mxCell>
        <mxCell id="2xes0_FK-Emr16ivV42R-17" value="Add Projects" style="ellipse;whiteSpace=wrap;html=1;" parent="Pm5u3H1z8by2jEkY2p9G-5" vertex="1">
          <mxGeometry x="127" y="99.9989189189189" width="150" height="50" as="geometry" />
        </mxCell>
        <mxCell id="2xes0_FK-Emr16ivV42R-21" value="Add Sponsorship&lt;div&gt;Name&lt;/div&gt;" style="ellipse;whiteSpace=wrap;html=1;" parent="Pm5u3H1z8by2jEkY2p9G-5" vertex="1">
          <mxGeometry x="127.00000000000001" y="162.07999999999998" width="150" height="50" as="geometry" />
        </mxCell>
        <mxCell id="2xes0_FK-Emr16ivV42R-22" value="Join Projects" style="ellipse;whiteSpace=wrap;html=1;" parent="Pm5u3H1z8by2jEkY2p9G-5" vertex="1">
          <mxGeometry x="127.50000000000001" y="224.07999999999998" width="150" height="50" as="geometry" />
        </mxCell>
        <mxCell id="2xes0_FK-Emr16ivV42R-23" value="Fund Projects" style="ellipse;whiteSpace=wrap;html=1;" parent="Pm5u3H1z8by2jEkY2p9G-5" vertex="1">
          <mxGeometry x="127.50000000000001" y="286.08" width="150" height="50" as="geometry" />
        </mxCell>
        <mxCell id="2xes0_FK-Emr16ivV42R-24" value="Update User&lt;div&gt;Informaton&lt;/div&gt;" style="ellipse;whiteSpace=wrap;html=1;" parent="Pm5u3H1z8by2jEkY2p9G-5" vertex="1">
          <mxGeometry x="128" y="348.08" width="150" height="50" as="geometry" />
        </mxCell>
        <mxCell id="2xes0_FK-Emr16ivV42R-25" value="Remove Members" style="ellipse;whiteSpace=wrap;html=1;" parent="Pm5u3H1z8by2jEkY2p9G-5" vertex="1">
          <mxGeometry x="127" y="410.08" width="150" height="50" as="geometry" />
        </mxCell>
        <mxCell id="2xes0_FK-Emr16ivV42R-26" value="Create Reports&lt;div&gt;Specific for Project&lt;/div&gt;" style="ellipse;whiteSpace=wrap;html=1;" parent="Pm5u3H1z8by2jEkY2p9G-5" vertex="1">
          <mxGeometry x="127" y="472.08" width="150" height="50" as="geometry" />
        </mxCell>
        <mxCell id="2xes0_FK-Emr16ivV42R-27" value="Create Reports&lt;div&gt;for Department&lt;/div&gt;" style="ellipse;whiteSpace=wrap;html=1;" parent="Pm5u3H1z8by2jEkY2p9G-5" vertex="1">
          <mxGeometry x="127.00000000000001" y="534.08" width="150" height="50" as="geometry" />
        </mxCell>
        <mxCell id="2xes0_FK-Emr16ivV42R-28" value="Create Reports&amp;nbsp;&lt;div&gt;for Total Sponsorship&lt;/div&gt;" style="ellipse;whiteSpace=wrap;html=1;" parent="Pm5u3H1z8by2jEkY2p9G-5" vertex="1">
          <mxGeometry x="127.00000000000001" y="596.08" width="150" height="50" as="geometry" />
        </mxCell>
        <mxCell id="2xes0_FK-Emr16ivV42R-30" style="edgeStyle=orthogonalEdgeStyle;rounded=0;orthogonalLoop=1;jettySize=auto;html=1;exitX=0.5;exitY=1;exitDx=0;exitDy=0;" parent="Pm5u3H1z8by2jEkY2p9G-5" edge="1">
          <mxGeometry relative="1" as="geometry">
            <mxPoint x="201.25" y="873.6190476190475" as="sourcePoint" />
            <mxPoint x="201.25" y="873.6190476190475" as="targetPoint" />
          </mxGeometry>
        </mxCell>
        <mxCell id="2xes0_FK-Emr16ivV42R-31" value="Change Project Data" style="ellipse;whiteSpace=wrap;html=1;" parent="Pm5u3H1z8by2jEkY2p9G-5" vertex="1">
          <mxGeometry x="128" y="659.08" width="150" height="50" as="geometry" />
        </mxCell>
        <mxCell id="2xes0_FK-Emr16ivV42R-34" value="System Settings" style="ellipse;whiteSpace=wrap;html=1;" parent="Pm5u3H1z8by2jEkY2p9G-5" vertex="1">
          <mxGeometry x="127" y="730" width="150" height="50" as="geometry" />
        </mxCell>
        <mxCell id="2xes0_FK-Emr16ivV42R-35" style="edgeStyle=orthogonalEdgeStyle;rounded=0;orthogonalLoop=1;jettySize=auto;html=1;exitX=0.5;exitY=1;exitDx=0;exitDy=0;" parent="Pm5u3H1z8by2jEkY2p9G-5" edge="1">
          <mxGeometry relative="1" as="geometry">
            <mxPoint x="200.25" y="813.6190476190475" as="sourcePoint" />
            <mxPoint x="200.25" y="813.6190476190475" as="targetPoint" />
          </mxGeometry>
        </mxCell>
        <mxCell id="2xes0_FK-Emr16ivV42R-36" style="edgeStyle=orthogonalEdgeStyle;rounded=0;orthogonalLoop=1;jettySize=auto;html=1;exitX=0.5;exitY=1;exitDx=0;exitDy=0;" parent="Pm5u3H1z8by2jEkY2p9G-5" edge="1">
          <mxGeometry relative="1" as="geometry">
            <mxPoint x="196.75" y="1197.6190476190475" as="sourcePoint" />
            <mxPoint x="196.75" y="1197.6190476190475" as="targetPoint" />
          </mxGeometry>
        </mxCell>
        <mxCell id="2xes0_FK-Emr16ivV42R-37" value="Update User Roles" style="ellipse;whiteSpace=wrap;html=1;" parent="Pm5u3H1z8by2jEkY2p9G-5" vertex="1">
          <mxGeometry x="127" y="792" width="150" height="50" as="geometry" />
        </mxCell>
        <mxCell id="2xes0_FK-Emr16ivV42R-38" value="Generate Reports" style="ellipse;whiteSpace=wrap;html=1;" parent="Pm5u3H1z8by2jEkY2p9G-5" vertex="1">
          <mxGeometry x="127" y="854" width="150" height="50" as="geometry" />
        </mxCell>
        <mxCell id="Pm5u3H1z8by2jEkY2p9G-1" value="Researcher" style="shape=umlActor;verticalLabelPosition=bottom;verticalAlign=top;html=1;outlineConnect=0;" parent="1" vertex="1">
          <mxGeometry x="810" y="150" width="30" height="60" as="geometry" />
        </mxCell>
        <mxCell id="2xes0_FK-Emr16ivV42R-2" value="Faculty Advisor&lt;br&gt;&lt;div&gt;&lt;br&gt;&lt;/div&gt;" style="shape=umlActor;verticalLabelPosition=bottom;verticalAlign=top;html=1;outlineConnect=0;" parent="1" vertex="1">
          <mxGeometry x="120" y="120.00423728813564" width="30" height="42.71186440677966" as="geometry" />
        </mxCell>
        <mxCell id="2xes0_FK-Emr16ivV42R-5" value="System Administrator" style="shape=umlActor;verticalLabelPosition=bottom;verticalAlign=top;html=1;outlineConnect=0;" parent="1" vertex="1">
          <mxGeometry x="120" y="850" width="30" height="59.83" as="geometry" />
        </mxCell>
        <mxCell id="XsYN3WBrvLkg4Awm20ru-3" value="&lt;div&gt;Program Director&lt;/div&gt;" style="shape=umlActor;verticalLabelPosition=bottom;verticalAlign=top;html=1;outlineConnect=0;" vertex="1" parent="1">
          <mxGeometry x="120" y="500.00423728813564" width="30" height="42.71186440677966" as="geometry" />
        </mxCell>
        <mxCell id="XsYN3WBrvLkg4Awm20ru-4" value="" style="endArrow=none;html=1;rounded=0;exitX=1;exitY=0.3333333333333333;exitDx=0;exitDy=0;exitPerimeter=0;entryX=0;entryY=0.5;entryDx=0;entryDy=0;" edge="1" parent="1" source="2xes0_FK-Emr16ivV42R-2" target="2xes0_FK-Emr16ivV42R-17">
          <mxGeometry width="50" height="50" relative="1" as="geometry">
            <mxPoint x="190" y="140" as="sourcePoint" />
            <mxPoint x="240" y="90" as="targetPoint" />
          </mxGeometry>
        </mxCell>
        <mxCell id="XsYN3WBrvLkg4Awm20ru-5" value="" style="endArrow=none;html=1;rounded=0;exitX=1;exitY=0.3333333333333333;exitDx=0;exitDy=0;exitPerimeter=0;entryX=0;entryY=0.5;entryDx=0;entryDy=0;" edge="1" parent="1" source="2xes0_FK-Emr16ivV42R-2" target="2xes0_FK-Emr16ivV42R-21">
          <mxGeometry width="50" height="50" relative="1" as="geometry">
            <mxPoint x="160" y="144" as="sourcePoint" />
            <mxPoint x="412" y="135" as="targetPoint" />
          </mxGeometry>
        </mxCell>
        <mxCell id="XsYN3WBrvLkg4Awm20ru-6" value="Sponsor" style="shape=umlActor;verticalLabelPosition=bottom;verticalAlign=top;html=1;outlineConnect=0;" vertex="1" parent="1">
          <mxGeometry x="810" y="500" width="30" height="60" as="geometry" />
        </mxCell>
        <mxCell id="XsYN3WBrvLkg4Awm20ru-7" value="" style="endArrow=none;html=1;rounded=0;exitX=1;exitY=0.3333333333333333;exitDx=0;exitDy=0;exitPerimeter=0;entryX=0;entryY=0.5;entryDx=0;entryDy=0;" edge="1" parent="1" source="2xes0_FK-Emr16ivV42R-2" target="2xes0_FK-Emr16ivV42R-22">
          <mxGeometry width="50" height="50" relative="1" as="geometry">
            <mxPoint x="160" y="144" as="sourcePoint" />
            <mxPoint x="412" y="197" as="targetPoint" />
          </mxGeometry>
        </mxCell>
        <mxCell id="XsYN3WBrvLkg4Awm20ru-8" value="" style="endArrow=none;html=1;rounded=0;exitX=0;exitY=0.3333333333333333;exitDx=0;exitDy=0;exitPerimeter=0;entryX=1;entryY=0.5;entryDx=0;entryDy=0;" edge="1" parent="1" source="Pm5u3H1z8by2jEkY2p9G-1" target="2xes0_FK-Emr16ivV42R-22">
          <mxGeometry width="50" height="50" relative="1" as="geometry">
            <mxPoint x="160" y="144" as="sourcePoint" />
            <mxPoint x="413" y="259" as="targetPoint" />
          </mxGeometry>
        </mxCell>
        <mxCell id="XsYN3WBrvLkg4Awm20ru-9" value="" style="endArrow=none;html=1;rounded=0;exitX=0;exitY=0.3333333333333333;exitDx=0;exitDy=0;exitPerimeter=0;entryX=1;entryY=0.5;entryDx=0;entryDy=0;" edge="1" parent="1" source="XsYN3WBrvLkg4Awm20ru-6" target="2xes0_FK-Emr16ivV42R-23">
          <mxGeometry width="50" height="50" relative="1" as="geometry">
            <mxPoint x="820" y="180" as="sourcePoint" />
            <mxPoint x="563" y="259" as="targetPoint" />
          </mxGeometry>
        </mxCell>
        <mxCell id="XsYN3WBrvLkg4Awm20ru-10" value="" style="endArrow=none;html=1;rounded=0;exitX=1;exitY=0.5;exitDx=0;exitDy=0;entryX=0;entryY=0.3333333333333333;entryDx=0;entryDy=0;entryPerimeter=0;" edge="1" parent="1" source="2xes0_FK-Emr16ivV42R-24" target="Pm5u3H1z8by2jEkY2p9G-1">
          <mxGeometry width="50" height="50" relative="1" as="geometry">
            <mxPoint x="820" y="520" as="sourcePoint" />
            <mxPoint x="563" y="321" as="targetPoint" />
          </mxGeometry>
        </mxCell>
        <mxCell id="XsYN3WBrvLkg4Awm20ru-11" value="" style="endArrow=none;html=1;rounded=0;exitX=0;exitY=0.5;exitDx=0;exitDy=0;entryX=1;entryY=0.3333333333333333;entryDx=0;entryDy=0;entryPerimeter=0;" edge="1" parent="1" source="2xes0_FK-Emr16ivV42R-24" target="2xes0_FK-Emr16ivV42R-2">
          <mxGeometry width="50" height="50" relative="1" as="geometry">
            <mxPoint x="563" y="383" as="sourcePoint" />
            <mxPoint x="820" y="180" as="targetPoint" />
          </mxGeometry>
        </mxCell>
        <mxCell id="XsYN3WBrvLkg4Awm20ru-12" value="" style="endArrow=none;html=1;rounded=0;exitX=0;exitY=0.5;exitDx=0;exitDy=0;entryX=1;entryY=0.3333333333333333;entryDx=0;entryDy=0;entryPerimeter=0;" edge="1" parent="1" source="2xes0_FK-Emr16ivV42R-25" target="2xes0_FK-Emr16ivV42R-2">
          <mxGeometry width="50" height="50" relative="1" as="geometry">
            <mxPoint x="413" y="383" as="sourcePoint" />
            <mxPoint x="160" y="240" as="targetPoint" />
          </mxGeometry>
        </mxCell>
        <mxCell id="XsYN3WBrvLkg4Awm20ru-13" value="" style="endArrow=none;html=1;rounded=0;entryX=1;entryY=0.3333333333333333;entryDx=0;entryDy=0;entryPerimeter=0;exitX=0;exitY=0.5;exitDx=0;exitDy=0;" edge="1" parent="1" source="2xes0_FK-Emr16ivV42R-26" target="XsYN3WBrvLkg4Awm20ru-3">
          <mxGeometry width="50" height="50" relative="1" as="geometry">
            <mxPoint x="235" y="456.1889763779527" as="sourcePoint" />
            <mxPoint x="120" y="320" as="targetPoint" />
          </mxGeometry>
        </mxCell>
        <mxCell id="XsYN3WBrvLkg4Awm20ru-14" value="" style="endArrow=none;html=1;rounded=0;exitX=0;exitY=0.5;exitDx=0;exitDy=0;entryX=1;entryY=0.3333333333333333;entryDx=0;entryDy=0;entryPerimeter=0;" edge="1" parent="1" source="2xes0_FK-Emr16ivV42R-26" target="2xes0_FK-Emr16ivV42R-2">
          <mxGeometry width="50" height="50" relative="1" as="geometry">
            <mxPoint x="412" y="507" as="sourcePoint" />
            <mxPoint x="130" y="280" as="targetPoint" />
          </mxGeometry>
        </mxCell>
        <mxCell id="XsYN3WBrvLkg4Awm20ru-15" value="" style="endArrow=none;html=1;rounded=0;exitX=0;exitY=0.5;exitDx=0;exitDy=0;entryX=1;entryY=0.3333333333333333;entryDx=0;entryDy=0;entryPerimeter=0;" edge="1" parent="1" source="2xes0_FK-Emr16ivV42R-27" target="XsYN3WBrvLkg4Awm20ru-3">
          <mxGeometry width="50" height="50" relative="1" as="geometry">
            <mxPoint x="412" y="507" as="sourcePoint" />
            <mxPoint x="160" y="140" as="targetPoint" />
          </mxGeometry>
        </mxCell>
        <mxCell id="XsYN3WBrvLkg4Awm20ru-16" value="" style="endArrow=none;html=1;rounded=0;entryX=1;entryY=0.5;entryDx=0;entryDy=0;exitX=0;exitY=0.3333333333333333;exitDx=0;exitDy=0;exitPerimeter=0;" edge="1" parent="1" source="XsYN3WBrvLkg4Awm20ru-6" target="2xes0_FK-Emr16ivV42R-28">
          <mxGeometry width="50" height="50" relative="1" as="geometry">
            <mxPoint x="760" y="580" as="sourcePoint" />
            <mxPoint x="563" y="321" as="targetPoint" />
          </mxGeometry>
        </mxCell>
        <mxCell id="XsYN3WBrvLkg4Awm20ru-17" value="" style="endArrow=none;html=1;rounded=0;entryX=1;entryY=0.5;entryDx=0;entryDy=0;exitX=0;exitY=0.3333333333333333;exitDx=0;exitDy=0;exitPerimeter=0;" edge="1" parent="1" source="XsYN3WBrvLkg4Awm20ru-6" target="2xes0_FK-Emr16ivV42R-26">
          <mxGeometry width="50" height="50" relative="1" as="geometry">
            <mxPoint x="810" y="510" as="sourcePoint" />
            <mxPoint x="562" y="631" as="targetPoint" />
          </mxGeometry>
        </mxCell>
        <mxCell id="XsYN3WBrvLkg4Awm20ru-18" value="" style="endArrow=none;html=1;rounded=0;entryX=1;entryY=0.5;entryDx=0;entryDy=0;exitX=0;exitY=0.3333333333333333;exitDx=0;exitDy=0;exitPerimeter=0;" edge="1" parent="1" source="XsYN3WBrvLkg4Awm20ru-6" target="2xes0_FK-Emr16ivV42R-24">
          <mxGeometry width="50" height="50" relative="1" as="geometry">
            <mxPoint x="810" y="510" as="sourcePoint" />
            <mxPoint x="563" y="321" as="targetPoint" />
          </mxGeometry>
        </mxCell>
        <mxCell id="XsYN3WBrvLkg4Awm20ru-19" value="" style="endArrow=none;html=1;rounded=0;entryX=0;entryY=0.5;entryDx=0;entryDy=0;exitX=1;exitY=0.3333333333333333;exitDx=0;exitDy=0;exitPerimeter=0;" edge="1" parent="1" source="XsYN3WBrvLkg4Awm20ru-3" target="2xes0_FK-Emr16ivV42R-24">
          <mxGeometry width="50" height="50" relative="1" as="geometry">
            <mxPoint x="820" y="520" as="sourcePoint" />
            <mxPoint x="563" y="383" as="targetPoint" />
          </mxGeometry>
        </mxCell>
        <mxCell id="XsYN3WBrvLkg4Awm20ru-20" value="" style="endArrow=none;html=1;rounded=0;exitX=0;exitY=0.5;exitDx=0;exitDy=0;entryX=1;entryY=0.3333333333333333;entryDx=0;entryDy=0;entryPerimeter=0;" edge="1" parent="1" source="2xes0_FK-Emr16ivV42R-25" target="XsYN3WBrvLkg4Awm20ru-3">
          <mxGeometry width="50" height="50" relative="1" as="geometry">
            <mxPoint x="412" y="569" as="sourcePoint" />
            <mxPoint x="160" y="510" as="targetPoint" />
          </mxGeometry>
        </mxCell>
        <mxCell id="XsYN3WBrvLkg4Awm20ru-21" value="" style="endArrow=none;html=1;rounded=0;exitX=0;exitY=0.5;exitDx=0;exitDy=0;entryX=1;entryY=0.3333333333333333;entryDx=0;entryDy=0;entryPerimeter=0;" edge="1" parent="1" source="2xes0_FK-Emr16ivV42R-25" target="2xes0_FK-Emr16ivV42R-5">
          <mxGeometry width="50" height="50" relative="1" as="geometry">
            <mxPoint x="412" y="445" as="sourcePoint" />
            <mxPoint x="160" y="524" as="targetPoint" />
          </mxGeometry>
        </mxCell>
        <mxCell id="XsYN3WBrvLkg4Awm20ru-22" value="" style="endArrow=none;html=1;rounded=0;exitX=0;exitY=0.5;exitDx=0;exitDy=0;entryX=1;entryY=0.3333333333333333;entryDx=0;entryDy=0;entryPerimeter=0;" edge="1" parent="1" source="2xes0_FK-Emr16ivV42R-24" target="2xes0_FK-Emr16ivV42R-5">
          <mxGeometry width="50" height="50" relative="1" as="geometry">
            <mxPoint x="412" y="445" as="sourcePoint" />
            <mxPoint x="160" y="880" as="targetPoint" />
          </mxGeometry>
        </mxCell>
        <mxCell id="XsYN3WBrvLkg4Awm20ru-23" value="" style="endArrow=none;html=1;rounded=0;exitX=0;exitY=0.5;exitDx=0;exitDy=0;entryX=1;entryY=0.3333333333333333;entryDx=0;entryDy=0;entryPerimeter=0;" edge="1" parent="1" source="2xes0_FK-Emr16ivV42R-34" target="2xes0_FK-Emr16ivV42R-5">
          <mxGeometry width="50" height="50" relative="1" as="geometry">
            <mxPoint x="413" y="383" as="sourcePoint" />
            <mxPoint x="160" y="880" as="targetPoint" />
          </mxGeometry>
        </mxCell>
        <mxCell id="XsYN3WBrvLkg4Awm20ru-24" value="" style="endArrow=none;html=1;rounded=0;exitX=0;exitY=0.5;exitDx=0;exitDy=0;entryX=1;entryY=0.3333333333333333;entryDx=0;entryDy=0;entryPerimeter=0;" edge="1" parent="1" source="2xes0_FK-Emr16ivV42R-37" target="2xes0_FK-Emr16ivV42R-5">
          <mxGeometry width="50" height="50" relative="1" as="geometry">
            <mxPoint x="413" y="880" as="sourcePoint" />
            <mxPoint x="160" y="880" as="targetPoint" />
          </mxGeometry>
        </mxCell>
        <mxCell id="XsYN3WBrvLkg4Awm20ru-25" value="" style="endArrow=none;html=1;rounded=0;exitX=0;exitY=0.5;exitDx=0;exitDy=0;" edge="1" parent="1" source="2xes0_FK-Emr16ivV42R-38">
          <mxGeometry width="50" height="50" relative="1" as="geometry">
            <mxPoint x="413" y="942" as="sourcePoint" />
            <mxPoint x="150" y="870" as="targetPoint" />
          </mxGeometry>
        </mxCell>
        <mxCell id="XsYN3WBrvLkg4Awm20ru-26" value="" style="endArrow=none;html=1;rounded=0;exitX=1;exitY=0.5;exitDx=0;exitDy=0;" edge="1" parent="1" source="2xes0_FK-Emr16ivV42R-26">
          <mxGeometry width="50" height="50" relative="1" as="geometry">
            <mxPoint x="563" y="383" as="sourcePoint" />
            <mxPoint x="810" y="170" as="targetPoint" />
          </mxGeometry>
        </mxCell>
        <mxCell id="XsYN3WBrvLkg4Awm20ru-27" value="" style="endArrow=none;html=1;rounded=0;exitX=0;exitY=0.5;exitDx=0;exitDy=0;entryX=1;entryY=0.3333333333333333;entryDx=0;entryDy=0;entryPerimeter=0;" edge="1" parent="1" source="2xes0_FK-Emr16ivV42R-28" target="XsYN3WBrvLkg4Awm20ru-3">
          <mxGeometry width="50" height="50" relative="1" as="geometry">
            <mxPoint x="412" y="569" as="sourcePoint" />
            <mxPoint x="160" y="524" as="targetPoint" />
          </mxGeometry>
        </mxCell>
        <mxCell id="XsYN3WBrvLkg4Awm20ru-28" value="" style="endArrow=none;html=1;rounded=0;entryX=0;entryY=0.5;entryDx=0;entryDy=0;exitX=1;exitY=0.3333333333333333;exitDx=0;exitDy=0;exitPerimeter=0;" edge="1" parent="1" source="XsYN3WBrvLkg4Awm20ru-3" target="2xes0_FK-Emr16ivV42R-17">
          <mxGeometry width="50" height="50" relative="1" as="geometry">
            <mxPoint x="110" y="410" as="sourcePoint" />
            <mxPoint x="413" y="383" as="targetPoint" />
          </mxGeometry>
        </mxCell>
        <mxCell id="XsYN3WBrvLkg4Awm20ru-29" value="" style="endArrow=none;html=1;rounded=0;entryX=1;entryY=0.5;entryDx=0;entryDy=0;exitX=0;exitY=0.3333333333333333;exitDx=0;exitDy=0;exitPerimeter=0;" edge="1" parent="1" source="XsYN3WBrvLkg4Awm20ru-6" target="2xes0_FK-Emr16ivV42R-21">
          <mxGeometry width="50" height="50" relative="1" as="geometry">
            <mxPoint x="810" y="550" as="sourcePoint" />
            <mxPoint x="563" y="383" as="targetPoint" />
          </mxGeometry>
        </mxCell>
        <mxCell id="XsYN3WBrvLkg4Awm20ru-30" value="" style="endArrow=none;html=1;rounded=0;exitX=1;exitY=0.3333333333333333;exitDx=0;exitDy=0;exitPerimeter=0;entryX=0;entryY=0.5;entryDx=0;entryDy=0;" edge="1" parent="1" source="2xes0_FK-Emr16ivV42R-2" target="2xes0_FK-Emr16ivV42R-31">
          <mxGeometry width="50" height="50" relative="1" as="geometry">
            <mxPoint x="160" y="144" as="sourcePoint" />
            <mxPoint x="412" y="135" as="targetPoint" />
          </mxGeometry>
        </mxCell>
        <mxCell id="XsYN3WBrvLkg4Awm20ru-31" value="" style="endArrow=none;html=1;rounded=0;exitX=0;exitY=0.3333333333333333;exitDx=0;exitDy=0;exitPerimeter=0;entryX=1;entryY=0.5;entryDx=0;entryDy=0;" edge="1" parent="1" source="Pm5u3H1z8by2jEkY2p9G-1" target="2xes0_FK-Emr16ivV42R-31">
          <mxGeometry width="50" height="50" relative="1" as="geometry">
            <mxPoint x="160" y="144" as="sourcePoint" />
            <mxPoint x="413" y="694" as="targetPoint" />
          </mxGeometry>
        </mxCell>
        <mxCell id="XsYN3WBrvLkg4Awm20ru-32" value="" style="endArrow=none;html=1;rounded=0;exitX=0;exitY=0.5;exitDx=0;exitDy=0;entryX=1;entryY=0.3333333333333333;entryDx=0;entryDy=0;entryPerimeter=0;" edge="1" parent="1" source="2xes0_FK-Emr16ivV42R-31" target="XsYN3WBrvLkg4Awm20ru-3">
          <mxGeometry width="50" height="50" relative="1" as="geometry">
            <mxPoint x="820" y="180" as="sourcePoint" />
            <mxPoint x="563" y="694" as="targetPoint" />
          </mxGeometry>
        </mxCell>
      </root>
    </mxGraphModel>
  </diagram>
</mxfile>
